<svg xmlns="http://www.w3.org/2000/svg" viewBox="0 0 1080 1080" width="1080" height="1080">
  <defs>
    <radialGradient id="bgfill" cx="0.5" cy="0.42" r="0.75">
      <stop offset="0" stop-color="#6a2399"/>
      <stop offset="0.55" stop-color="#3d1263"/>
      <stop offset="1" stop-color="#1c0833"/>
    </radialGradient>
    <radialGradient id="halo" cx="0.5" cy="0.5" r="0.5">
      <stop offset="0" stop-color="#fe2c55" stop-opacity="0.55"/>
      <stop offset="0.55" stop-color="#fe2c55" stop-opacity="0.16"/>
      <stop offset="1" stop-color="#fe2c55" stop-opacity="0"/>
    </radialGradient>
    <linearGradient id="skin" x1="0.2" y1="0" x2="0.8" y2="1">
      <stop offset="0" stop-color="#ff5f80"/>
      <stop offset="0.55" stop-color="#fe2c55"/>
      <stop offset="1" stop-color="#e3164a"/>
    </linearGradient>
    <radialGradient id="ball" cx="0.35" cy="0.35" r="0.7">
      <stop offset="0" stop-color="#ff7a98"/>
      <stop offset="1" stop-color="#fe2c55"/>
    </radialGradient>
    <filter id="lift" x="-30%" y="-30%" width="160%" height="160%">
      <feDropShadow dx="0" dy="2" stdDeviation="2.4" flood-color="#3a0418" flood-opacity="0.35"/>
    </filter>
  </defs>
  <rect width="1080" height="1080" fill="url(#bgfill)"/>
  <circle cx="540" cy="520" r="420" fill="url(#halo)"/>
  <path transform="translate(812 206) scale(3.6)" d="M0-10 L2.6-2.6 10 0 2.6 2.6 0 10 -2.6 2.6 -10 0 -2.6-2.6Z" fill="#25f4ee"/>
  <path transform="translate(236 300) scale(2.6)" d="M0-10 L2.6-2.6 10 0 2.6 2.6 0 10 -2.6 2.6 -10 0 -2.6-2.6Z" fill="#ffffff"/>
  <path transform="translate(880 560) scale(1.9)" d="M0-10 L2.6-2.6 10 0 2.6 2.6 0 10 -2.6 2.6 -10 0 -2.6-2.6Z" fill="#ffffff"/>
  <circle cx="206" cy="640" r="12" fill="#25f4ee"/>
  <circle cx="300" cy="190" r="8" fill="#ff7a98"/>
  <circle cx="858" cy="820" r="10" fill="#ff7a98"/>
  <circle cx="238" cy="840" r="7" fill="#ffffff" fill-opacity="0.6"/>
  <g transform="translate(126 122) scale(9)">
  <ellipse cx="46" cy="86.5" rx="21" ry="3.6" fill="#000000" fill-opacity="0.35" />
  <g filter="url(#lift)">
    <path d="M46 20V11" stroke="#fe2c55" stroke-width="3.4" stroke-linecap="round" fill="none"/>
    <circle cx="46" cy="8.4" r="4.2" fill="url(#ball)"/>
    <circle cx="44.6" cy="7" r="1.2" fill="#ffffff" fill-opacity="0.7"/>
    <path d="M22 52l-8 6" stroke="#fe2c55" stroke-width="5" stroke-linecap="round"/>
    <path d="M69 44l9.5-10.5" stroke="#fe2c55" stroke-width="5" stroke-linecap="round"/>
    <path d="M46 19c15.5 0 25 11.6 25 27.5 0 16.4-9.8 27.5-25 27.5S21 62.9 21 46.5C21 30.6 30.5 19 46 19Z" fill="url(#skin)"/>
  </g>
  <ellipse cx="36.5" cy="29" rx="7.5" ry="4.2" transform="rotate(-24 36.5 29)" fill="#ffffff" fill-opacity="0.28"/>
  <path d="M82.5 30.5c1.9 1.3 2.4 3.4 2 5.8M85.4 26.6c3 2 3.9 5.4 3.2 9.4" fill="none" stroke="#25f4ee" stroke-width="1.5" stroke-linecap="round"/>
  <ellipse cx="34" cy="44" rx="5.2" ry="6" fill="#4c0519"/>
  <ellipse cx="58" cy="44" rx="5.2" ry="6" fill="#4c0519"/>
  <circle cx="35.8" cy="41.6" r="1.8" fill="#ffffff" fill-opacity="0.95"/>
  <circle cx="59.8" cy="41.6" r="1.8" fill="#ffffff" fill-opacity="0.95"/>
  <path d="M35 55c0 7 4.9 11.4 11 11.4S57 62 57 55z" fill="#4c0519"/>
  <path d="M40.2 61.8c1.6-2.2 9.9-2.2 11.6 0-1.6 2.4-3.6 3.4-5.8 3.4s-4.2-1-5.8-3.4z" fill="#ff7a98"/></g>
</svg>